hintordertest_MMM.ufo
<glyph name="uni001E" format="2">
  <advance width="1340"/>
  <unicode hex="001E"/>
  <outline>
    <contour>
      <point x="326" y="0" type="line"/>
      <point x="446" y="0" type="line"/>
      <point x="446" y="40" type="line"/>
      <point x="430" y="40" type="line"/>
      <point x="326" y="24" type="line"/>
    </contour>
    <contour>
      <point x="384" y="0" type="curve"/>
      <point x="563" y="0" type="line"/>
      <point x="559" y="78"/>
      <point x="558" y="205"/>
      <point x="558" y="308" type="curve" smooth="yes"/>
      <point x="558" y="351" type="line" smooth="yes"/>
      <point x="558" y="452"/>
      <point x="559" y="574"/>
      <point x="563" y="652" type="curve"/>
      <point x="385" y="652" type="line"/>
      <point x="389" y="574"/>
      <point x="390" y="452"/>
      <point x="390" y="351" type="curve" smooth="yes"/>
      <point x="390" y="308" type="line" smooth="yes"/>
      <point x="390" y="205"/>
      <point x="388" y="78"/>
    </contour>
    <contour>
      <point x="468" y="0" type="line"/>
      <point x="570" y="0" type="line" smooth="yes"/>
      <point x="714" y="0"/>
      <point x="864" y="41"/>
      <point x="864" y="182" type="curve" smooth="yes"/>
      <point x="864" y="288"/>
      <point x="747" y="338"/>
      <point x="580" y="344" type="curve"/>
      <point x="580" y="338" type="line"/>
      <point x="751" y="351"/>
      <point x="832" y="411"/>
      <point x="832" y="500" type="curve" smooth="yes"/>
      <point x="832" y="583"/>
      <point x="780" y="652"/>
      <point x="578" y="652" type="curve" smooth="yes"/>
      <point x="468" y="652" type="line"/>
      <point x="468" y="624" type="line"/>
      <point x="570" y="624" type="line" smooth="yes"/>
      <point x="636" y="624"/>
      <point x="676" y="579"/>
      <point x="676" y="496" type="curve" smooth="yes"/>
      <point x="676" y="404"/>
      <point x="632" y="353"/>
      <point x="566" y="353" type="curve" smooth="yes"/>
      <point x="468" y="353" type="line"/>
      <point x="468" y="327" type="line"/>
      <point x="570" y="327" type="line" smooth="yes"/>
      <point x="656" y="327"/>
      <point x="696" y="274"/>
      <point x="696" y="176" type="curve" smooth="yes"/>
      <point x="696" y="85"/>
      <point x="649" y="28"/>
      <point x="570" y="28" type="curve" smooth="yes"/>
      <point x="468" y="28" type="line"/>
    </contour>
    <contour>
      <point x="1046" y="657" type="line"/>
      <point x="1326" y="657" type="line"/>
      <point x="1326" y="733" type="line"/>
      <point x="1046" y="733" type="line"/>
    </contour>
    <contour>
      <point x="326" y="628" type="line"/>
      <point x="430" y="612" type="line"/>
      <point x="446" y="612" type="line"/>
      <point x="446" y="652" type="line"/>
      <point x="326" y="652" type="line"/>
    </contour>
  </outline>
</glyph>
<glyph name="uni001E" format="2">
  <advance width="943"/>
  <unicode hex="001E"/>
  <outline>
    <contour>
      <point x="809" y="730" type="curve" smooth="yes"/>
      <point x="768" y="730"/>
      <point x="745" y="763"/>
      <point x="745" y="798" type="curve" smooth="yes"/>
      <point x="745" y="833"/>
      <point x="768" y="866"/>
      <point x="809" y="866" type="curve" smooth="yes"/>
      <point x="850" y="866"/>
      <point x="873" y="833"/>
      <point x="873" y="798" type="curve" smooth="yes"/>
      <point x="873" y="763"/>
      <point x="850" y="730"/>
    </contour>
    <contour>
      <point x="809" y="698" type="curve" smooth="yes"/>
      <point x="862" y="698"/>
      <point x="913" y="735"/>
      <point x="913" y="798" type="curve" smooth="yes"/>
      <point x="913" y="863"/>
      <point x="862" y="898"/>
      <point x="809" y="898" type="curve" smooth="yes"/>
      <point x="756" y="898"/>
      <point x="705" y="861"/>
      <point x="705" y="798" type="curve" smooth="yes"/>
      <point x="705" y="733"/>
      <point x="756" y="698"/>
    </contour>
    <contour>
      <point x="348" y="-16" type="curve" smooth="yes"/>
      <point x="406" y="-16"/>
      <point x="468" y="-2"/>
      <point x="509" y="20" type="curve"/>
      <point x="520" y="196" type="line"/>
      <point x="496" y="196" type="line"/>
      <point x="408" y="8" type="line"/>
      <point x="472" y="32" type="line"/>
      <point x="476" y="52" type="line"/>
      <point x="440" y="25"/>
      <point x="397" y="12"/>
      <point x="360" y="12" type="curve" smooth="yes"/>
      <point x="279" y="12"/>
      <point x="208" y="96"/>
      <point x="208" y="324" type="curve" smooth="yes"/>
      <point x="208" y="553"/>
      <point x="281" y="640"/>
      <point x="360" y="640" type="curve" smooth="yes"/>
      <point x="392" y="640"/>
      <point x="439" y="629"/>
      <point x="476" y="600" type="curve"/>
      <point x="472" y="620" type="line"/>
      <point x="407" y="644" type="line"/>
      <point x="496" y="468" type="line"/>
      <point x="520" y="468" type="line"/>
      <point x="509" y="630" type="line"/>
      <point x="465" y="655"/>
      <point x="409" y="668"/>
      <point x="348" y="668" type="curve" smooth="yes"/>
      <point x="201" y="668"/>
      <point x="32" y="574"/>
      <point x="32" y="324" type="curve" smooth="yes"/>
      <point x="32" y="79"/>
      <point x="190" y="-16"/>
    </contour>
  </outline>
</glyph>
<glyph name="uni001E" format="2">
  <advance width="1028"/>
  <unicode hex="001E"/>
  <outline>
    <contour>
      <point x="24" y="0" type="line"/>
      <point x="216" y="0" type="line"/>
      <point x="216" y="40" type="line"/>
      <point x="128" y="40" type="line"/>
      <point x="24" y="24" type="line"/>
    </contour>
    <contour>
      <point x="732" y="672" type="curve" smooth="yes"/>
      <point x="768" y="672"/>
      <point x="798" y="695"/>
      <point x="798" y="735" type="curve" smooth="yes"/>
      <point x="798" y="775"/>
      <point x="768" y="798"/>
      <point x="732" y="798" type="curve" smooth="yes"/>
      <point x="696" y="798"/>
      <point x="666" y="775"/>
      <point x="666" y="735" type="curve" smooth="yes"/>
      <point x="666" y="695"/>
      <point x="696" y="672"/>
    </contour>
    <contour>
      <point x="932" y="672" type="curve" smooth="yes"/>
      <point x="968" y="672"/>
      <point x="998" y="695"/>
      <point x="998" y="735" type="curve" smooth="yes"/>
      <point x="998" y="775"/>
      <point x="968" y="798"/>
      <point x="932" y="798" type="curve" smooth="yes"/>
      <point x="896" y="798"/>
      <point x="866" y="775"/>
      <point x="866" y="735" type="curve" smooth="yes"/>
      <point x="866" y="695"/>
      <point x="896" y="672"/>
    </contour>
    <contour>
      <point x="82" y="0" type="curve"/>
      <point x="261" y="0" type="line"/>
      <point x="257" y="78"/>
      <point x="256" y="205"/>
      <point x="256" y="308" type="curve" smooth="yes"/>
      <point x="256" y="351" type="line" smooth="yes"/>
      <point x="256" y="452"/>
      <point x="257" y="574"/>
      <point x="261" y="652" type="curve"/>
      <point x="83" y="652" type="line"/>
      <point x="87" y="574"/>
      <point x="88" y="452"/>
      <point x="88" y="351" type="curve" smooth="yes"/>
      <point x="88" y="308" type="line" smooth="yes"/>
      <point x="88" y="205"/>
      <point x="86" y="78"/>
    </contour>
    <contour>
      <point x="176" y="0" type="line"/>
      <point x="492" y="0" type="line"/>
      <point x="504" y="188" type="line"/>
      <point x="480" y="188" type="line"/>
      <point x="398" y="12" type="line"/>
      <point x="432" y="28" type="line"/>
      <point x="176" y="28" type="line"/>
    </contour>
    <contour>
      <point x="176" y="317" type="line"/>
      <point x="356" y="317" type="line"/>
      <point x="356" y="349" type="line"/>
      <point x="176" y="349" type="line"/>
    </contour>
    <contour>
      <point x="378" y="220" type="line"/>
      <point x="400" y="220" type="line"/>
      <point x="400" y="444" type="line"/>
      <point x="378" y="444" type="line"/>
      <point x="340" y="340" type="line"/>
      <point x="340" y="324" type="line"/>
    </contour>
    <contour>
      <point x="24" y="628" type="line"/>
      <point x="128" y="612" type="line"/>
      <point x="216" y="612" type="line"/>
      <point x="216" y="652" type="line"/>
      <point x="24" y="652" type="line"/>
    </contour>
    <contour>
      <point x="464" y="476" type="line"/>
      <point x="488" y="476" type="line"/>
      <point x="476" y="652" type="line"/>
      <point x="152" y="652" type="line"/>
      <point x="152" y="624" type="line"/>
      <point x="416" y="624" type="line"/>
      <point x="381" y="640" type="line"/>
    </contour>
  </outline>
</glyph>
<glyph name="uni001E" format="2">
  <advance width="540"/>
  <unicode hex="001E"/>
  <outline>
    <contour>
      <point x="24" y="0" type="line"/>
      <point x="320" y="0" type="line"/>
      <point x="320" y="24" type="line"/>
      <point x="216" y="40" type="line"/>
      <point x="128" y="40" type="line"/>
      <point x="24" y="24" type="line"/>
    </contour>
    <contour>
      <point x="400" y="687" type="line"/>
      <point x="502" y="687" type="line"/>
      <point x="510" y="883" type="line"/>
      <point x="392" y="883" type="line"/>
    </contour>
    <contour>
      <point x="82" y="0" type="curve"/>
      <point x="261" y="0" type="line"/>
      <point x="257" y="78"/>
      <point x="256" y="205"/>
      <point x="256" y="308" type="curve" smooth="yes"/>
      <point x="256" y="351" type="line" smooth="yes"/>
      <point x="256" y="452"/>
      <point x="258" y="574"/>
      <point x="262" y="652" type="curve"/>
      <point x="82" y="652" type="line"/>
      <point x="86" y="574"/>
      <point x="88" y="452"/>
      <point x="88" y="351" type="curve" smooth="yes"/>
      <point x="88" y="308" type="line" smooth="yes"/>
      <point x="88" y="205"/>
      <point x="86" y="78"/>
    </contour>
    <contour>
      <point x="24" y="628" type="line"/>
      <point x="128" y="612" type="line"/>
      <point x="216" y="612" type="line"/>
      <point x="320" y="628" type="line"/>
      <point x="320" y="652" type="line"/>
      <point x="24" y="652" type="line"/>
    </contour>
  </outline>
</glyph>
<glyph name="uni001E" format="2">
  <advance width="1248"/>
  <unicode hex="001E"/>
  <outline>
    <contour>
      <point x="326" y="0" type="line"/>
      <point x="518" y="0" type="line"/>
      <point x="518" y="40" type="line"/>
      <point x="430" y="40" type="line"/>
      <point x="326" y="24" type="line"/>
    </contour>
    <contour>
      <point x="384" y="0" type="curve"/>
      <point x="563" y="0" type="line"/>
      <point x="559" y="78"/>
      <point x="558" y="205"/>
      <point x="558" y="308" type="curve" smooth="yes"/>
      <point x="558" y="351" type="line" smooth="yes"/>
      <point x="558" y="452"/>
      <point x="559" y="574"/>
      <point x="563" y="652" type="curve"/>
      <point x="385" y="652" type="line"/>
      <point x="389" y="574"/>
      <point x="390" y="452"/>
      <point x="390" y="351" type="curve" smooth="yes"/>
      <point x="390" y="308" type="line" smooth="yes"/>
      <point x="390" y="205"/>
      <point x="388" y="78"/>
    </contour>
    <contour>
      <point x="954" y="657" type="line"/>
      <point x="1234" y="657" type="line"/>
      <point x="1234" y="733" type="line"/>
      <point x="954" y="733" type="line"/>
    </contour>
    <contour>
      <point x="478" y="0" type="line"/>
      <point x="782" y="0" type="line"/>
      <point x="794" y="208" type="line"/>
      <point x="770" y="208" type="line"/>
      <point x="688" y="12" type="line"/>
      <point x="722" y="28" type="line"/>
      <point x="478" y="28" type="line"/>
    </contour>
    <contour>
      <point x="326" y="628" type="line"/>
      <point x="430" y="612" type="line"/>
      <point x="518" y="612" type="line"/>
      <point x="622" y="628" type="line"/>
      <point x="622" y="652" type="line"/>
      <point x="326" y="652" type="line"/>
    </contour>
  </outline>
</glyph>
<glyph name="uni001E" format="2">
  <advance width="1191"/>
  <unicode hex="001E"/>
  <outline>
    <contour>
      <point x="24" y="0" type="line"/>
      <point x="190" y="0" type="line"/>
      <point x="190" y="24" type="line"/>
      <point x="118" y="34" type="line"/>
      <point x="92" y="34" type="line"/>
      <point x="24" y="24" type="line"/>
    </contour>
    <contour>
      <point x="24" y="628" type="line"/>
      <point x="124" y="612" type="line"/>
      <point x="126" y="612" type="line"/>
      <point x="126" y="652" type="line"/>
      <point x="24" y="652" type="line"/>
    </contour>
    <contour>
      <point x="1057" y="712" type="curve" smooth="yes"/>
      <point x="1016" y="712"/>
      <point x="993" y="745"/>
      <point x="993" y="780" type="curve" smooth="yes"/>
      <point x="993" y="815"/>
      <point x="1016" y="848"/>
      <point x="1057" y="848" type="curve" smooth="yes"/>
      <point x="1098" y="848"/>
      <point x="1121" y="815"/>
      <point x="1121" y="780" type="curve" smooth="yes"/>
      <point x="1121" y="745"/>
      <point x="1098" y="712"/>
    </contour>
    <contour>
      <point x="1057" y="680" type="curve" smooth="yes"/>
      <point x="1110" y="680"/>
      <point x="1161" y="717"/>
      <point x="1161" y="780" type="curve" smooth="yes"/>
      <point x="1161" y="845"/>
      <point x="1110" y="880"/>
      <point x="1057" y="880" type="curve" smooth="yes"/>
      <point x="1004" y="880"/>
      <point x="953" y="843"/>
      <point x="953" y="780" type="curve" smooth="yes"/>
      <point x="953" y="715"/>
      <point x="1004" y="680"/>
    </contour>
    <contour>
      <point x="88" y="0" type="line"/>
      <point x="120" y="0" type="line"/>
      <point x="120" y="340" type="line"/>
      <point x="120" y="628" type="line"/>
      <point x="88" y="628" type="line"/>
    </contour>
    <contour>
      <point x="298" y="0" type="line"/>
      <point x="366" y="0" type="line"/>
      <point x="550" y="574" type="line"/>
      <point x="554" y="587" type="line"/>
      <point x="562" y="587" type="line"/>
      <point x="562" y="652" type="line"/>
      <point x="543" y="652" type="line"/>
      <point x="398" y="208" type="line"/>
      <point x="396" y="202" type="line"/>
      <point x="406" y="202" type="line"/>
      <point x="260" y="652" type="line"/>
      <point x="104" y="652" type="line"/>
      <point x="104" y="552" type="line"/>
      <point x="115" y="552" type="line"/>
    </contour>
    <contour>
      <point x="482" y="0" type="line"/>
      <point x="778" y="0" type="line"/>
      <point x="778" y="24" type="line"/>
      <point x="674" y="40" type="line"/>
      <point x="586" y="40" type="line"/>
      <point x="482" y="24" type="line"/>
    </contour>
    <contour>
      <point x="540" y="0" type="curve"/>
      <point x="719" y="0" type="line"/>
      <point x="715" y="78"/>
      <point x="714" y="205"/>
      <point x="714" y="308" type="curve" smooth="yes"/>
      <point x="714" y="351" type="line" smooth="yes"/>
      <point x="714" y="452"/>
      <point x="715" y="574"/>
      <point x="719" y="652" type="curve"/>
      <point x="546" y="652" type="line"/>
      <point x="546" y="308" type="line" smooth="yes"/>
      <point x="546" y="205"/>
      <point x="544" y="78"/>
    </contour>
    <contour>
      <point x="586" y="612" type="line"/>
      <point x="674" y="612" type="line"/>
      <point x="778" y="628" type="line"/>
      <point x="778" y="652" type="line"/>
      <point x="586" y="652" type="line"/>
    </contour>
  </outline>
</glyph>
<glyph name="uni001E" format="2">
  <advance width="1079"/>
  <unicode hex="001E"/>
  <outline>
    <contour>
      <point x="166" y="0" type="line"/>
      <point x="340" y="0" type="line"/>
      <point x="340" y="24" type="line"/>
      <point x="264" y="34" type="line"/>
      <point x="238" y="34" type="line"/>
      <point x="166" y="24" type="line"/>
    </contour>
    <contour>
      <point x="234" y="0" type="line"/>
      <point x="266" y="0" type="line"/>
      <point x="266" y="326" type="line"/>
      <point x="266" y="633" type="line"/>
      <point x="234" y="633" type="line"/>
    </contour>
    <contour>
      <point x="566" y="628" type="line"/>
      <point x="650" y="618" type="line"/>
      <point x="676" y="618" type="line"/>
      <point x="740" y="628" type="line"/>
      <point x="740" y="652" type="line"/>
      <point x="566" y="652" type="line"/>
    </contour>
    <contour>
      <point x="957" y="673" type="line"/>
      <point x="1059" y="673" type="line"/>
      <point x="1067" y="869" type="line"/>
      <point x="949" y="869" type="line"/>
    </contour>
    <contour>
      <point x="606" y="0" type="line"/>
      <point x="680" y="0" type="line"/>
      <point x="680" y="652" type="line"/>
      <point x="648" y="652" type="line"/>
      <point x="648" y="326" type="line"/>
      <point x="648" y="200" type="line"/>
      <point x="676" y="200" type="line"/>
      <point x="389" y="652" type="line"/>
      <point x="166" y="652" type="line"/>
      <point x="166" y="628" type="line"/>
      <point x="212" y="621" type="line"/>
      <point x="263" y="540" type="line"/>
      <point x="264" y="540" type="line"/>
    </contour>
  </outline>
</glyph>
<glyph name="uni001E" format="2">
  <advance width="1168"/>
  <unicode hex="001E"/>
  <outline>
    <contour>
      <point x="872" y="688" type="curve" smooth="yes"/>
      <point x="908" y="688"/>
      <point x="938" y="711"/>
      <point x="938" y="751" type="curve" smooth="yes"/>
      <point x="938" y="791"/>
      <point x="908" y="814"/>
      <point x="872" y="814" type="curve" smooth="yes"/>
      <point x="836" y="814"/>
      <point x="806" y="791"/>
      <point x="806" y="751" type="curve" smooth="yes"/>
      <point x="806" y="711"/>
      <point x="836" y="688"/>
    </contour>
    <contour>
      <point x="1072" y="688" type="curve" smooth="yes"/>
      <point x="1108" y="688"/>
      <point x="1138" y="711"/>
      <point x="1138" y="751" type="curve" smooth="yes"/>
      <point x="1138" y="791"/>
      <point x="1108" y="814"/>
      <point x="1072" y="814" type="curve" smooth="yes"/>
      <point x="1036" y="814"/>
      <point x="1006" y="791"/>
      <point x="1006" y="751" type="curve" smooth="yes"/>
      <point x="1006" y="711"/>
      <point x="1036" y="688"/>
    </contour>
    <contour>
      <point x="324" y="-16" type="curve" smooth="yes"/>
      <point x="477" y="-16"/>
      <point x="616" y="91"/>
      <point x="616" y="326" type="curve" smooth="yes"/>
      <point x="616" y="561"/>
      <point x="476" y="668"/>
      <point x="324" y="668" type="curve" smooth="yes"/>
      <point x="172" y="668"/>
      <point x="32" y="561"/>
      <point x="32" y="326" type="curve" smooth="yes"/>
      <point x="32" y="91"/>
      <point x="171" y="-16"/>
    </contour>
    <contour>
      <point x="324" y="12" type="curve" smooth="yes"/>
      <point x="243" y="12"/>
      <point x="212" y="132"/>
      <point x="212" y="327" type="curve" smooth="yes"/>
      <point x="212" y="522"/>
      <point x="243" y="640"/>
      <point x="324" y="640" type="curve" smooth="yes"/>
      <point x="405" y="640"/>
      <point x="436" y="522"/>
      <point x="436" y="327" type="curve" smooth="yes"/>
      <point x="436" y="132"/>
      <point x="405" y="12"/>
    </contour>
  </outline>
</glyph>
<glyph name="uni001E" format="2">
  <advance width="1091"/>
  <unicode hex="001E"/>
  <outline>
    <contour>
      <point x="1010" y="719" type="curve" smooth="yes"/>
      <point x="969" y="719"/>
      <point x="946" y="752"/>
      <point x="946" y="787" type="curve" smooth="yes"/>
      <point x="946" y="822"/>
      <point x="969" y="855"/>
      <point x="1010" y="855" type="curve" smooth="yes"/>
      <point x="1051" y="855"/>
      <point x="1074" y="822"/>
      <point x="1074" y="787" type="curve" smooth="yes"/>
      <point x="1074" y="752"/>
      <point x="1051" y="719"/>
    </contour>
    <contour>
      <point x="1010" y="687" type="curve" smooth="yes"/>
      <point x="1063" y="687"/>
      <point x="1114" y="724"/>
      <point x="1114" y="787" type="curve" smooth="yes"/>
      <point x="1114" y="852"/>
      <point x="1063" y="887"/>
      <point x="1010" y="887" type="curve" smooth="yes"/>
      <point x="957" y="887"/>
      <point x="906" y="850"/>
      <point x="906" y="787" type="curve" smooth="yes"/>
      <point x="906" y="722"/>
      <point x="957" y="687"/>
    </contour>
    <contour>
      <point x="475" y="-16" type="curve" smooth="yes"/>
      <point x="650" y="-16"/>
      <point x="715" y="76"/>
      <point x="715" y="186" type="curve" smooth="yes"/>
      <point x="715" y="299"/>
      <point x="640" y="345"/>
      <point x="565" y="387" type="curve" smooth="yes"/>
      <point x="538" y="402" type="line" smooth="yes"/>
      <point x="477" y="436"/>
      <point x="423" y="469"/>
      <point x="423" y="534" type="curve" smooth="yes"/>
      <point x="423" y="594"/>
      <point x="469" y="640"/>
      <point x="535" y="640" type="curve" smooth="yes"/>
      <point x="576" y="640"/>
      <point x="603" y="624"/>
      <point x="639" y="596" type="curve"/>
      <point x="639" y="624" type="line"/>
      <point x="585" y="644" type="line"/>
      <point x="655" y="468" type="line"/>
      <point x="679" y="468" type="line"/>
      <point x="683" y="620" type="line"/>
      <point x="647" y="647"/>
      <point x="590" y="668"/>
      <point x="527" y="668" type="curve" smooth="yes"/>
      <point x="374" y="668"/>
      <point x="299" y="580"/>
      <point x="299" y="474" type="curve" smooth="yes"/>
      <point x="299" y="363"/>
      <point x="372" y="313"/>
      <point x="444" y="273" type="curve" smooth="yes"/>
      <point x="471" y="258" type="line" smooth="yes"/>
      <point x="531" y="225"/>
      <point x="583" y="191"/>
      <point x="583" y="126" type="curve" smooth="yes"/>
      <point x="583" y="58"/>
      <point x="529" y="12"/>
      <point x="467" y="12" type="curve" smooth="yes"/>
      <point x="421" y="12"/>
      <point x="386" y="21"/>
      <point x="339" y="56" type="curve"/>
      <point x="343" y="44" type="line"/>
      <point x="391" y="12" type="line"/>
      <point x="323" y="192" type="line"/>
      <point x="299" y="192" type="line"/>
      <point x="291" y="36" type="line"/>
      <point x="349" y="2"/>
      <point x="410" y="-16"/>
    </contour>
  </outline>
</glyph>
<glyph name="uni001E" format="2">
  <advance width="1531"/>
  <unicode hex="001E"/>
  <outline>
    <contour>
      <point x="753" y="-16" type="curve" smooth="yes"/>
      <point x="896" y="-16"/>
      <point x="965" y="62"/>
      <point x="965" y="268" type="curve" smooth="yes"/>
      <point x="965" y="652" type="line"/>
      <point x="933" y="652" type="line"/>
      <point x="933" y="243" type="line" smooth="yes"/>
      <point x="933" y="112"/>
      <point x="880" y="62"/>
      <point x="801" y="62" type="curve" smooth="yes"/>
      <point x="715" y="62"/>
      <point x="675" y="109"/>
      <point x="675" y="246" type="curve" smooth="yes"/>
      <point x="675" y="348" type="line" smooth="yes"/>
      <point x="675" y="450"/>
      <point x="676" y="574"/>
      <point x="680" y="652" type="curve"/>
      <point x="502" y="652" type="line"/>
      <point x="506" y="574"/>
      <point x="507" y="450"/>
      <point x="507" y="348" type="curve" smooth="yes"/>
      <point x="507" y="214" type="line" smooth="yes"/>
      <point x="507" y="40"/>
      <point x="611" y="-16"/>
    </contour>
    <contour>
      <point x="447" y="628" type="line"/>
      <point x="547" y="612" type="line"/>
      <point x="635" y="612" type="line"/>
      <point x="735" y="628" type="line"/>
      <point x="735" y="652" type="line"/>
      <point x="447" y="652" type="line"/>
    </contour>
    <contour>
      <point x="1320" y="659" type="curve" smooth="yes"/>
      <point x="1356" y="659"/>
      <point x="1386" y="682"/>
      <point x="1386" y="722" type="curve" smooth="yes"/>
      <point x="1386" y="762"/>
      <point x="1356" y="785"/>
      <point x="1320" y="785" type="curve" smooth="yes"/>
      <point x="1284" y="785"/>
      <point x="1254" y="762"/>
      <point x="1254" y="722" type="curve" smooth="yes"/>
      <point x="1254" y="682"/>
      <point x="1284" y="659"/>
    </contour>
    <contour>
      <point x="1520" y="659" type="curve" smooth="yes"/>
      <point x="1556" y="659"/>
      <point x="1586" y="682"/>
      <point x="1586" y="722" type="curve" smooth="yes"/>
      <point x="1586" y="762"/>
      <point x="1556" y="785"/>
      <point x="1520" y="785" type="curve" smooth="yes"/>
      <point x="1484" y="785"/>
      <point x="1454" y="762"/>
      <point x="1454" y="722" type="curve" smooth="yes"/>
      <point x="1454" y="682"/>
      <point x="1484" y="659"/>
    </contour>
    <contour>
      <point x="867" y="628" type="line"/>
      <point x="939" y="617" type="line"/>
      <point x="957" y="617" type="line"/>
      <point x="1025" y="628" type="line"/>
      <point x="1025" y="652" type="line"/>
      <point x="867" y="652" type="line"/>
    </contour>
  </outline>
</glyph>
<glyph name="uni001E" format="2">
  <advance width="944"/>
  <unicode hex="001E"/>
  <outline>
    <contour>
      <point x="837" y="662" type="curve" smooth="yes"/>
      <point x="879" y="662"/>
      <point x="914" y="693"/>
      <point x="914" y="737" type="curve" smooth="yes"/>
      <point x="914" y="781"/>
      <point x="879" y="812"/>
      <point x="837" y="812" type="curve" smooth="yes"/>
      <point x="795" y="812"/>
      <point x="760" y="781"/>
      <point x="760" y="737" type="curve" smooth="yes"/>
      <point x="760" y="693"/>
      <point x="795" y="662"/>
    </contour>
    <contour>
      <point x="255" y="0" type="line"/>
      <point x="351" y="0" type="line"/>
      <point x="551" y="652" type="line"/>
      <point x="516" y="652" type="line"/>
      <point x="372" y="157" type="line"/>
      <point x="369" y="148" type="line"/>
      <point x="379" y="148" type="line"/>
      <point x="235" y="652" type="line"/>
      <point x="55" y="652" type="line"/>
    </contour>
    <contour>
      <point x="12" y="628" type="line"/>
      <point x="91" y="612" type="line"/>
      <point x="199" y="612" type="line"/>
      <point x="316" y="628" type="line"/>
      <point x="316" y="652" type="line"/>
      <point x="12" y="652" type="line"/>
    </contour>
    <contour>
      <point x="438" y="628" type="line"/>
      <point x="514" y="618" type="line"/>
      <point x="531" y="618" type="line"/>
      <point x="599" y="628" type="line"/>
      <point x="599" y="652" type="line"/>
      <point x="438" y="652" type="line"/>
    </contour>
  </outline>
</glyph>
<glyph name="uni001E" format="2">
  <advance width="983"/>
  <unicode hex="001E"/>
  <outline>
    <contour>
      <point x="12" y="0" type="line"/>
      <point x="188" y="0" type="line"/>
      <point x="188" y="24" type="line"/>
      <point x="116" y="34" type="line"/>
      <point x="84" y="34" type="line"/>
      <point x="12" y="24" type="line"/>
    </contour>
    <contour>
      <point x="849" y="712" type="curve" smooth="yes"/>
      <point x="808" y="712"/>
      <point x="785" y="745"/>
      <point x="785" y="780" type="curve" smooth="yes"/>
      <point x="785" y="815"/>
      <point x="808" y="848"/>
      <point x="849" y="848" type="curve" smooth="yes"/>
      <point x="890" y="848"/>
      <point x="913" y="815"/>
      <point x="913" y="780" type="curve" smooth="yes"/>
      <point x="913" y="745"/>
      <point x="890" y="712"/>
    </contour>
    <contour>
      <point x="849" y="680" type="curve" smooth="yes"/>
      <point x="902" y="680"/>
      <point x="953" y="717"/>
      <point x="953" y="780" type="curve" smooth="yes"/>
      <point x="953" y="845"/>
      <point x="902" y="880"/>
      <point x="849" y="880" type="curve" smooth="yes"/>
      <point x="796" y="880"/>
      <point x="745" y="843"/>
      <point x="745" y="780" type="curve" smooth="yes"/>
      <point x="745" y="715"/>
      <point x="796" y="680"/>
    </contour>
    <contour>
      <point x="59" y="0" type="line"/>
      <point x="96" y="0" type="line"/>
      <point x="267" y="284" type="line"/>
      <point x="280" y="306" type="line"/>
      <point x="310" y="306" type="line"/>
      <point x="269" y="336" type="line"/>
    </contour>
    <contour>
      <point x="300" y="0" type="line"/>
      <point x="608" y="0" type="line"/>
      <point x="608" y="24" type="line"/>
      <point x="516" y="40" type="line"/>
      <point x="412" y="40" type="line"/>
      <point x="300" y="24" type="line"/>
    </contour>
    <contour>
      <point x="349" y="346" type="line"/>
      <point x="533" y="652" type="line"/>
      <point x="496" y="652" type="line"/>
      <point x="346" y="395" type="line"/>
      <point x="334" y="374" type="line"/>
      <point x="309" y="374" type="line"/>
    </contour>
    <contour>
      <point x="384" y="0" type="line"/>
      <point x="568" y="0" type="line"/>
      <point x="240" y="652" type="line"/>
      <point x="56" y="652" type="line"/>
    </contour>
    <contour>
      <point x="21" y="628" type="line"/>
      <point x="108" y="612" type="line"/>
      <point x="212" y="612" type="line"/>
      <point x="324" y="628" type="line"/>
      <point x="324" y="652" type="line"/>
      <point x="21" y="652" type="line"/>
    </contour>
    <contour>
      <point x="404" y="628" type="line"/>
      <point x="476" y="618" type="line"/>
      <point x="508" y="618" type="line"/>
      <point x="580" y="628" type="line"/>
      <point x="580" y="652" type="line"/>
      <point x="404" y="652" type="line"/>
    </contour>
  </outline>
</glyph>
<glyph name="uni001E" format="2">
  <advance width="1041"/>
  <unicode hex="001E"/>
  <outline>
    <contour>
      <point x="301" y="0" type="line"/>
      <point x="605" y="0" type="line"/>
      <point x="605" y="24" type="line"/>
      <point x="501" y="40" type="line"/>
      <point x="405" y="40" type="line"/>
      <point x="301" y="24" type="line"/>
    </contour>
    <contour>
      <point x="365" y="0" type="curve"/>
      <point x="541" y="0" type="line"/>
      <point x="538" y="102"/>
      <point x="537" y="184"/>
      <point x="537" y="296" type="curve"/>
      <point x="369" y="296" type="line"/>
      <point x="369" y="184"/>
      <point x="368" y="102"/>
    </contour>
    <contour>
      <point x="927" y="673" type="line"/>
      <point x="1029" y="673" type="line"/>
      <point x="1037" y="869" type="line"/>
      <point x="919" y="869" type="line"/>
    </contour>
    <contour>
      <point x="405" y="188" type="line"/>
      <point x="497" y="188" type="line"/>
      <point x="693" y="652" type="line"/>
      <point x="657" y="652" type="line"/>
      <point x="524" y="315" type="line"/>
      <point x="521" y="308" type="line"/>
      <point x="532" y="308" type="line"/>
      <point x="393" y="652" type="line"/>
      <point x="205" y="652" type="line"/>
    </contour>
    <contour>
      <point x="174" y="628" type="line"/>
      <point x="261" y="612" type="line"/>
      <point x="361" y="612" type="line"/>
      <point x="469" y="628" type="line"/>
      <point x="469" y="652" type="line"/>
      <point x="174" y="652" type="line"/>
    </contour>
    <contour>
      <point x="577" y="628" type="line"/>
      <point x="645" y="618" type="line"/>
      <point x="665" y="618" type="line"/>
      <point x="737" y="628" type="line"/>
      <point x="737" y="652" type="line"/>
      <point x="577" y="652" type="line"/>
    </contour>
  </outline>
</glyph>
<glyph name="uni001E" format="2">
  <advance width="1032"/>
  <unicode hex="001E"/>
  <outline>
    <contour>
      <point x="736" y="672" type="curve" smooth="yes"/>
      <point x="772" y="672"/>
      <point x="802" y="695"/>
      <point x="802" y="735" type="curve" smooth="yes"/>
      <point x="802" y="775"/>
      <point x="772" y="798"/>
      <point x="736" y="798" type="curve" smooth="yes"/>
      <point x="700" y="798"/>
      <point x="670" y="775"/>
      <point x="670" y="735" type="curve" smooth="yes"/>
      <point x="670" y="695"/>
      <point x="700" y="672"/>
    </contour>
    <contour>
      <point x="936" y="672" type="curve" smooth="yes"/>
      <point x="972" y="672"/>
      <point x="1002" y="695"/>
      <point x="1002" y="735" type="curve" smooth="yes"/>
      <point x="1002" y="775"/>
      <point x="972" y="798"/>
      <point x="936" y="798" type="curve" smooth="yes"/>
      <point x="900" y="798"/>
      <point x="870" y="775"/>
      <point x="870" y="735" type="curve" smooth="yes"/>
      <point x="870" y="695"/>
      <point x="900" y="672"/>
    </contour>
    <contour>
      <point x="24" y="0" type="line"/>
      <point x="492" y="0" type="line"/>
      <point x="504" y="188" type="line"/>
      <point x="480" y="188" type="line"/>
      <point x="398" y="12" type="line"/>
      <point x="432" y="28" type="line"/>
      <point x="320" y="28" type="line"/>
      <point x="208" y="28" type="line"/>
      <point x="208" y="44" type="line"/>
      <point x="203" y="11" type="line"/>
      <point x="496" y="632" type="line"/>
      <point x="496" y="652" type="line"/>
      <point x="48" y="652" type="line"/>
      <point x="36" y="468" type="line"/>
      <point x="60" y="468" type="line"/>
      <point x="143" y="640" type="line"/>
      <point x="108" y="624" type="line"/>
      <point x="211" y="624" type="line"/>
      <point x="313" y="624" type="line"/>
      <point x="313" y="615" type="line"/>
      <point x="317" y="638" type="line"/>
      <point x="24" y="20" type="line"/>
    </contour>
  </outline>
</glyph>
<glyph name="uni001E" format="2">
  <advance width="1051"/>
  <unicode hex="001E"/>
  <outline>
    <contour>
      <point x="969" y="525" type="curve" smooth="yes"/>
      <point x="928" y="525"/>
      <point x="905" y="558"/>
      <point x="905" y="593" type="curve" smooth="yes"/>
      <point x="905" y="628"/>
      <point x="928" y="661"/>
      <point x="969" y="661" type="curve" smooth="yes"/>
      <point x="1010" y="661"/>
      <point x="1033" y="628"/>
      <point x="1033" y="593" type="curve" smooth="yes"/>
      <point x="1033" y="558"/>
      <point x="1010" y="525"/>
    </contour>
    <contour>
      <point x="969" y="493" type="curve" smooth="yes"/>
      <point x="1022" y="493"/>
      <point x="1073" y="530"/>
      <point x="1073" y="593" type="curve" smooth="yes"/>
      <point x="1073" y="658"/>
      <point x="1022" y="693"/>
      <point x="969" y="693" type="curve" smooth="yes"/>
      <point x="916" y="693"/>
      <point x="865" y="656"/>
      <point x="865" y="593" type="curve" smooth="yes"/>
      <point x="865" y="528"/>
      <point x="916" y="493"/>
    </contour>
    <contour>
      <point x="510" y="-16" type="curve" smooth="yes"/>
      <point x="592" y="-16"/>
      <point x="654" y="17"/>
      <point x="693" y="94" type="curve"/>
      <point x="678" y="108" type="line"/>
      <point x="652" y="84"/>
      <point x="622" y="68"/>
      <point x="586" y="68" type="curve" smooth="yes"/>
      <point x="506" y="68"/>
      <point x="458" y="130"/>
      <point x="458" y="250" type="curve" smooth="yes"/>
      <point x="458" y="405"/>
      <point x="512" y="448"/>
      <point x="551" y="448" type="curve" smooth="yes"/>
      <point x="580" y="448"/>
      <point x="599" y="442"/>
      <point x="625" y="430" type="curve"/>
      <point x="554" y="464" type="line"/>
      <point x="556" y="394" type="line" smooth="yes"/>
      <point x="558" y="318"/>
      <point x="594" y="296"/>
      <point x="630" y="296" type="curve" smooth="yes"/>
      <point x="664" y="296"/>
      <point x="684" y="311"/>
      <point x="695" y="346" type="curve"/>
      <point x="695" y="416"/>
      <point x="638" y="476"/>
      <point x="535" y="476" type="curve" smooth="yes"/>
      <point x="389" y="476"/>
      <point x="290" y="388"/>
      <point x="290" y="224" type="curve" smooth="yes"/>
      <point x="290" y="68"/>
      <point x="388" y="-16"/>
    </contour>
  </outline>
</glyph>
<glyph name="uni001E" format="2">
  <advance width="1328"/>
  <unicode hex="001E"/>
  <outline>
    <contour>
      <point x="1114" y="512" type="curve" smooth="yes"/>
      <point x="1150" y="512"/>
      <point x="1180" y="535"/>
      <point x="1180" y="575" type="curve" smooth="yes"/>
      <point x="1180" y="615"/>
      <point x="1150" y="638"/>
      <point x="1114" y="638" type="curve" smooth="yes"/>
      <point x="1078" y="638"/>
      <point x="1048" y="615"/>
      <point x="1048" y="575" type="curve" smooth="yes"/>
      <point x="1048" y="535"/>
      <point x="1078" y="512"/>
    </contour>
    <contour>
      <point x="1314" y="512" type="curve" smooth="yes"/>
      <point x="1350" y="512"/>
      <point x="1380" y="535"/>
      <point x="1380" y="575" type="curve" smooth="yes"/>
      <point x="1380" y="615"/>
      <point x="1350" y="638"/>
      <point x="1314" y="638" type="curve" smooth="yes"/>
      <point x="1278" y="638"/>
      <point x="1248" y="615"/>
      <point x="1248" y="575" type="curve" smooth="yes"/>
      <point x="1248" y="535"/>
      <point x="1278" y="512"/>
    </contour>
    <contour>
      <point x="668" y="-16" type="curve" smooth="yes"/>
      <point x="750" y="-16"/>
      <point x="816" y="17"/>
      <point x="855" y="94" type="curve"/>
      <point x="840" y="108" type="line"/>
      <point x="814" y="84"/>
      <point x="784" y="68"/>
      <point x="744" y="68" type="curve" smooth="yes"/>
      <point x="668" y="68"/>
      <point x="612" y="132"/>
      <point x="612" y="252" type="curve" smooth="yes"/>
      <point x="612" y="403"/>
      <point x="636" y="448"/>
      <point x="672" y="448" type="curve" smooth="yes"/>
      <point x="700" y="448"/>
      <point x="720" y="427"/>
      <point x="720" y="352" type="curve" smooth="yes"/>
      <point x="720" y="289"/>
      <point x="701" y="274"/>
      <point x="638" y="274" type="curve" smooth="yes"/>
      <point x="508" y="274" type="line"/>
      <point x="508" y="248" type="line"/>
      <point x="856" y="248" type="line"/>
      <point x="860" y="266"/>
      <point x="860" y="272"/>
      <point x="860" y="292" type="curve" smooth="yes"/>
      <point x="860" y="396"/>
      <point x="792" y="476"/>
      <point x="668" y="476" type="curve" smooth="yes"/>
      <point x="553" y="476"/>
      <point x="444" y="395"/>
      <point x="444" y="224" type="curve" smooth="yes"/>
      <point x="444" y="68"/>
      <point x="544" y="-16"/>
    </contour>
  </outline>
</glyph>
<glyph name="uni001E" format="2">
  <advance width="963"/>
  <unicode hex="001E"/>
  <outline>
    <contour>
      <point x="20" y="0" type="line"/>
      <point x="272" y="0" type="line"/>
      <point x="272" y="24" type="line"/>
      <point x="196" y="40" type="line"/>
      <point x="100" y="40" type="line"/>
      <point x="20" y="24" type="line"/>
    </contour>
    <contour>
      <point x="62" y="0" type="curve"/>
      <point x="234" y="0" type="line"/>
      <point x="228" y="53"/>
      <point x="228" y="140"/>
      <point x="228" y="208" type="curve" smooth="yes"/>
      <point x="228" y="373" type="line"/>
      <point x="228" y="375" type="line"/>
      <point x="228" y="504" type="line"/>
      <point x="232" y="713" type="line"/>
      <point x="216" y="725" type="line"/>
      <point x="16" y="673" type="line"/>
      <point x="16" y="653" type="line"/>
      <point x="68" y="637" type="line"/>
      <point x="68" y="208" type="line" smooth="yes"/>
      <point x="68" y="140"/>
      <point x="68" y="53"/>
    </contour>
    <contour>
      <point x="829" y="780" type="curve" smooth="yes"/>
      <point x="788" y="780"/>
      <point x="765" y="813"/>
      <point x="765" y="848" type="curve" smooth="yes"/>
      <point x="765" y="883"/>
      <point x="788" y="916"/>
      <point x="829" y="916" type="curve" smooth="yes"/>
      <point x="870" y="916"/>
      <point x="893" y="883"/>
      <point x="893" y="848" type="curve" smooth="yes"/>
      <point x="893" y="813"/>
      <point x="870" y="780"/>
    </contour>
    <contour>
      <point x="829" y="748" type="curve" smooth="yes"/>
      <point x="882" y="748"/>
      <point x="933" y="785"/>
      <point x="933" y="848" type="curve" smooth="yes"/>
      <point x="933" y="913"/>
      <point x="882" y="948"/>
      <point x="829" y="948" type="curve" smooth="yes"/>
      <point x="776" y="948"/>
      <point x="725" y="911"/>
      <point x="725" y="848" type="curve" smooth="yes"/>
      <point x="725" y="783"/>
      <point x="776" y="748"/>
    </contour>
    <contour>
      <point x="304" y="0" type="line"/>
      <point x="552" y="0" type="line"/>
      <point x="552" y="24" type="line"/>
      <point x="476" y="40" type="line"/>
      <point x="380" y="40" type="line"/>
      <point x="304" y="24" type="line"/>
    </contour>
    <contour>
      <point x="342" y="0" type="curve"/>
      <point x="514" y="0" type="line"/>
      <point x="508" y="53"/>
      <point x="508" y="140"/>
      <point x="508" y="208" type="curve" smooth="yes"/>
      <point x="508" y="325" type="line" smooth="yes"/>
      <point x="508" y="428"/>
      <point x="456" y="476"/>
      <point x="380" y="476" type="curve" smooth="yes"/>
      <point x="312" y="476"/>
      <point x="260" y="445"/>
      <point x="208" y="358" type="curve"/>
      <point x="196" y="358" type="line"/>
      <point x="196" y="328" type="line"/>
      <point x="224" y="366"/>
      <point x="265" y="388"/>
      <point x="298" y="388" type="curve" smooth="yes"/>
      <point x="330" y="388"/>
      <point x="348" y="370"/>
      <point x="348" y="320" type="curve" smooth="yes"/>
      <point x="348" y="208" type="line" smooth="yes"/>
      <point x="348" y="140"/>
      <point x="348" y="53"/>
    </contour>
  </outline>
</glyph>
<glyph name="uni001E" format="2">
  <advance width="1089"/>
  <unicode hex="001E"/>
  <outline>
    <contour>
      <point x="230" y="0" type="line"/>
      <point x="482" y="0" type="line"/>
      <point x="482" y="24" type="line"/>
      <point x="406" y="40" type="line"/>
      <point x="310" y="40" type="line"/>
      <point x="230" y="24" type="line"/>
    </contour>
    <contour>
      <point x="1024" y="730" type="curve" smooth="yes"/>
      <point x="1066" y="730"/>
      <point x="1101" y="761"/>
      <point x="1101" y="805" type="curve" smooth="yes"/>
      <point x="1101" y="849"/>
      <point x="1066" y="880"/>
      <point x="1024" y="880" type="curve" smooth="yes"/>
      <point x="982" y="880"/>
      <point x="947" y="849"/>
      <point x="947" y="805" type="curve" smooth="yes"/>
      <point x="947" y="761"/>
      <point x="982" y="730"/>
    </contour>
    <contour>
      <point x="272" y="0" type="curve"/>
      <point x="444" y="0" type="line"/>
      <point x="438" y="53"/>
      <point x="438" y="140"/>
      <point x="438" y="208" type="curve" smooth="yes"/>
      <point x="438" y="504" type="line"/>
      <point x="442" y="713" type="line"/>
      <point x="426" y="725" type="line"/>
      <point x="226" y="673" type="line"/>
      <point x="226" y="653" type="line"/>
      <point x="278" y="637" type="line"/>
      <point x="278" y="208" type="line" smooth="yes"/>
      <point x="278" y="140"/>
      <point x="278" y="53"/>
    </contour>
    <contour>
      <point x="354" y="128" type="line"/>
      <point x="684" y="460" type="line"/>
      <point x="642" y="460" type="line"/>
      <point x="500" y="312" type="line"/>
      <point x="358" y="164" type="line"/>
      <point x="354" y="164" type="line"/>
    </contour>
    <contour>
      <point x="546" y="0" type="line"/>
      <point x="750" y="0" type="line"/>
      <point x="750" y="24" type="line"/>
      <point x="708" y="34" type="line"/>
      <point x="569" y="360" type="line"/>
      <point x="454" y="244" type="line"/>
    </contour>
    <contour>
      <point x="526" y="436" type="line"/>
      <point x="610" y="420" type="line"/>
      <point x="638" y="420" type="line"/>
      <point x="730" y="436" type="line"/>
      <point x="730" y="460" type="line"/>
      <point x="526" y="460" type="line"/>
    </contour>
  </outline>
</glyph>
<glyph name="uni001E" format="2">
  <advance width="1385"/>
  <unicode hex="001E"/>
  <outline>
    <contour>
      <point x="1173" y="512" type="curve" smooth="yes"/>
      <point x="1209" y="512"/>
      <point x="1239" y="535"/>
      <point x="1239" y="575" type="curve" smooth="yes"/>
      <point x="1239" y="615"/>
      <point x="1209" y="638"/>
      <point x="1173" y="638" type="curve" smooth="yes"/>
      <point x="1137" y="638"/>
      <point x="1107" y="615"/>
      <point x="1107" y="575" type="curve" smooth="yes"/>
      <point x="1107" y="535"/>
      <point x="1137" y="512"/>
    </contour>
    <contour>
      <point x="1373" y="512" type="curve" smooth="yes"/>
      <point x="1409" y="512"/>
      <point x="1439" y="535"/>
      <point x="1439" y="575" type="curve" smooth="yes"/>
      <point x="1439" y="615"/>
      <point x="1409" y="638"/>
      <point x="1373" y="638" type="curve" smooth="yes"/>
      <point x="1337" y="638"/>
      <point x="1307" y="615"/>
      <point x="1307" y="575" type="curve" smooth="yes"/>
      <point x="1307" y="535"/>
      <point x="1337" y="512"/>
    </contour>
    <contour>
      <point x="686" y="-16" type="curve" smooth="yes"/>
      <point x="828" y="-16"/>
      <point x="926" y="89"/>
      <point x="926" y="230" type="curve" smooth="yes"/>
      <point x="926" y="372"/>
      <point x="847" y="476"/>
      <point x="686" y="476" type="curve" smooth="yes"/>
      <point x="540" y="476"/>
      <point x="446" y="371"/>
      <point x="446" y="230" type="curve" smooth="yes"/>
      <point x="446" y="88"/>
      <point x="525" y="-16"/>
    </contour>
    <contour>
      <point x="686" y="12" type="curve" smooth="yes"/>
      <point x="642" y="12"/>
      <point x="618" y="53"/>
      <point x="618" y="230" type="curve" smooth="yes"/>
      <point x="618" y="406"/>
      <point x="642" y="448"/>
      <point x="686" y="448" type="curve" smooth="yes"/>
      <point x="730" y="448"/>
      <point x="754" y="407"/>
      <point x="754" y="230" type="curve" smooth="yes"/>
      <point x="754" y="54"/>
      <point x="730" y="12"/>
    </contour>
  </outline>
</glyph>
<glyph name="uni001E" format="2">
  <advance width="1119"/>
  <unicode hex="001E"/>
  <outline>
    <contour>
      <point x="824" y="641" type="line"/>
      <point x="1104" y="641" type="line"/>
      <point x="1104" y="717" type="line"/>
      <point x="824" y="717" type="line"/>
    </contour>
    <contour>
      <point x="325" y="0" type="line"/>
      <point x="709" y="0" type="line"/>
      <point x="709" y="24" type="line"/>
      <point x="565" y="48" type="line"/>
      <point x="469" y="48" type="line"/>
      <point x="325" y="24" type="line"/>
    </contour>
    <contour>
      <point x="431" y="0" type="curve"/>
      <point x="603" y="0" type="line"/>
      <point x="597" y="53"/>
      <point x="597" y="140"/>
      <point x="597" y="208" type="curve" smooth="yes"/>
      <point x="597" y="420" type="line"/>
      <point x="601" y="624" type="line"/>
      <point x="585" y="636" type="line"/>
      <point x="345" y="560" type="line"/>
      <point x="345" y="536" type="line"/>
      <point x="437" y="544" type="line"/>
      <point x="437" y="208" type="line" smooth="yes"/>
      <point x="437" y="140"/>
      <point x="437" y="53"/>
    </contour>
  </outline>
</glyph>
<glyph name="uni001E" format="2">
  <advance width="1290"/>
  <unicode hex="001E"/>
  <outline>
    <contour>
      <point x="564" y="-240" type="line"/>
      <point x="828" y="-240" type="line"/>
      <point x="828" y="-216" type="line"/>
      <point x="748" y="-200" type="line"/>
      <point x="652" y="-200" type="line"/>
      <point x="564" y="-216" type="line"/>
    </contour>
    <contour>
      <point x="492" y="-16" type="curve" smooth="yes"/>
      <point x="559" y="-16"/>
      <point x="606" y="24"/>
      <point x="635" y="94" type="curve"/>
      <point x="643" y="94" type="line"/>
      <point x="636" y="112" type="line"/>
      <point x="617" y="85"/>
      <point x="595" y="64"/>
      <point x="569" y="64" type="curve" smooth="yes"/>
      <point x="523" y="64"/>
      <point x="492" y="100"/>
      <point x="492" y="224" type="curve" smooth="yes"/>
      <point x="492" y="353"/>
      <point x="526" y="396"/>
      <point x="569" y="396" type="curve" smooth="yes"/>
      <point x="599" y="396"/>
      <point x="612" y="383"/>
      <point x="636" y="352" type="curve"/>
      <point x="651" y="366" type="line"/>
      <point x="639" y="366" type="line"/>
      <point x="608" y="443"/>
      <point x="569" y="476"/>
      <point x="513" y="476" type="curve" smooth="yes"/>
      <point x="401" y="476"/>
      <point x="324" y="375"/>
      <point x="324" y="215" type="curve" smooth="yes"/>
      <point x="324" y="66"/>
      <point x="388" y="-16"/>
    </contour>
    <contour>
      <point x="994" y="481" type="line"/>
      <point x="1274" y="481" type="line"/>
      <point x="1274" y="557" type="line"/>
      <point x="994" y="557" type="line"/>
    </contour>
    <contour>
      <point x="616" y="-240" type="curve"/>
      <point x="786" y="-240" type="line"/>
      <point x="780" y="-187"/>
      <point x="780" y="-100"/>
      <point x="780" y="-32" type="curve" smooth="yes"/>
      <point x="780" y="324" type="line"/>
      <point x="784" y="466" type="line"/>
      <point x="768" y="476" type="line"/>
      <point x="620" y="388" type="line"/>
      <point x="620" y="383" type="line"/>
      <point x="620" y="84" type="line"/>
      <point x="622" y="80" type="line"/>
      <point x="622" y="-32" type="line" smooth="yes"/>
      <point x="622" y="-100"/>
      <point x="622" y="-187"/>
    </contour>
  </outline>
</glyph>
<glyph name="uni001E" format="2">
  <advance width="1453"/>
  <unicode hex="001E"/>
  <outline>
    <contour>
      <point x="537" y="-240" type="curve" smooth="yes"/>
      <point x="611" y="-240"/>
      <point x="656" y="-189"/>
      <point x="691" y="-92" type="curve" smooth="yes"/>
      <point x="890" y="460" type="line"/>
      <point x="857" y="460" type="line"/>
      <point x="800" y="296" type="line"/>
      <point x="706" y="32" type="line"/>
      <point x="703" y="23" type="line"/>
      <point x="664" y="-86" type="line"/>
      <point x="635" y="-159"/>
      <point x="616" y="-182"/>
      <point x="584" y="-203" type="curve"/>
      <point x="599" y="-216" type="line"/>
      <point x="616" y="-198" type="line"/>
      <point x="598" y="-174" type="line" smooth="yes"/>
      <point x="563" y="-128"/>
      <point x="535" y="-115"/>
      <point x="504" y="-115" type="curve" smooth="yes"/>
      <point x="465" y="-115"/>
      <point x="439" y="-139"/>
      <point x="435" y="-174" type="curve"/>
      <point x="448" y="-225"/>
      <point x="499" y="-240"/>
    </contour>
    <contour>
      <point x="679" y="-68" type="line"/>
      <point x="716" y="26" type="line"/>
      <point x="757" y="132" type="line"/>
      <point x="641" y="460" type="line"/>
      <point x="471" y="460" type="line"/>
    </contour>
    <contour>
      <point x="1230" y="496" type="curve" smooth="yes"/>
      <point x="1266" y="496"/>
      <point x="1296" y="519"/>
      <point x="1296" y="559" type="curve" smooth="yes"/>
      <point x="1296" y="599"/>
      <point x="1266" y="622"/>
      <point x="1230" y="622" type="curve" smooth="yes"/>
      <point x="1194" y="622"/>
      <point x="1164" y="599"/>
      <point x="1164" y="559" type="curve" smooth="yes"/>
      <point x="1164" y="519"/>
      <point x="1194" y="496"/>
    </contour>
    <contour>
      <point x="1430" y="496" type="curve" smooth="yes"/>
      <point x="1466" y="496"/>
      <point x="1496" y="519"/>
      <point x="1496" y="559" type="curve" smooth="yes"/>
      <point x="1496" y="599"/>
      <point x="1466" y="622"/>
      <point x="1430" y="622" type="curve" smooth="yes"/>
      <point x="1394" y="622"/>
      <point x="1364" y="599"/>
      <point x="1364" y="559" type="curve" smooth="yes"/>
      <point x="1364" y="519"/>
      <point x="1394" y="496"/>
    </contour>
    <contour>
      <point x="443" y="436" type="line"/>
      <point x="511" y="420" type="line"/>
      <point x="641" y="420" type="line"/>
      <point x="721" y="436" type="line"/>
      <point x="721" y="460" type="line"/>
      <point x="443" y="460" type="line"/>
    </contour>
    <contour>
      <point x="779" y="436" type="line"/>
      <point x="859" y="424" type="line"/>
      <point x="867" y="424" type="line"/>
      <point x="927" y="436" type="line"/>
      <point x="927" y="460" type="line"/>
      <point x="779" y="460" type="line"/>
    </contour>
  </outline>
</glyph>
